<?xml version="1.0" encoding="UTF-8"?>
<!-- Do not edit this file with editors other than draw.io -->
<!DOCTYPE svg PUBLIC "-//W3C//DTD SVG 1.1//EN" "http://www.w3.org/Graphics/SVG/1.1/DTD/svg11.dtd">
<svg xmlns="http://www.w3.org/2000/svg" style="background: transparent; background-color: transparent; color-scheme: light dark;" xmlns:xlink="http://www.w3.org/1999/xlink" version="1.1" width="757px" height="461px" viewBox="0 0 757 461" content="&lt;mxfile host=&quot;app.diagrams.net&quot;&gt;&#10;  &lt;diagram name=&quot;Page-1&quot; id=&quot;_twxEQnX9HF4815GG5Hj&quot;&gt;&#10;    &lt;mxGraphModel dx=&quot;1262&quot; dy=&quot;938&quot; grid=&quot;1&quot; gridSize=&quot;10&quot; guides=&quot;1&quot; tooltips=&quot;1&quot; connect=&quot;1&quot; arrows=&quot;1&quot; fold=&quot;1&quot; page=&quot;1&quot; pageScale=&quot;1&quot; pageWidth=&quot;827&quot; pageHeight=&quot;1169&quot; math=&quot;0&quot; shadow=&quot;0&quot;&gt;&#10;      &lt;root&gt;&#10;        &lt;mxCell id=&quot;0&quot; /&gt;&#10;        &lt;mxCell id=&quot;1&quot; parent=&quot;0&quot; /&gt;&#10;        &lt;mxCell id=&quot;u2GQE63Iu9Ab5R0BHB04-1&quot; parent=&quot;1&quot; style=&quot;sketch=0;outlineConnect=0;fontColor=#232F3E;gradientColor=none;fillColor=#232F3D;strokeColor=none;dashed=0;verticalLabelPosition=bottom;verticalAlign=top;align=center;html=1;fontSize=12;fontStyle=0;aspect=fixed;pointerEvents=1;shape=mxgraph.aws4.users;&quot; value=&quot;&quot; vertex=&quot;1&quot;&gt;&#10;          &lt;mxGeometry height=&quot;78&quot; width=&quot;78&quot; x=&quot;170&quot; y=&quot;540&quot; as=&quot;geometry&quot; /&gt;&#10;        &lt;/mxCell&gt;&#10;        &lt;mxCell id=&quot;u2GQE63Iu9Ab5R0BHB04-2&quot; parent=&quot;1&quot; style=&quot;text;html=1;whiteSpace=wrap;strokeColor=none;fillColor=none;align=center;verticalAlign=middle;rounded=0;fontSize=16;&quot; value=&quot;Bastion Users&amp;lt;div&amp;gt;&amp;lt;br&amp;gt;&amp;lt;/div&amp;gt;&quot; vertex=&quot;1&quot;&gt;&#10;          &lt;mxGeometry height=&quot;30&quot; width=&quot;110&quot; x=&quot;154&quot; y=&quot;640&quot; as=&quot;geometry&quot; /&gt;&#10;        &lt;/mxCell&gt;&#10;        &lt;mxCell id=&quot;u2GQE63Iu9Ab5R0BHB04-4&quot; parent=&quot;1&quot; style=&quot;points=[[0,0],[0.25,0],[0.5,0],[0.75,0],[1,0],[1,0.25],[1,0.5],[1,0.75],[1,1],[0.75,1],[0.5,1],[0.25,1],[0,1],[0,0.75],[0,0.5],[0,0.25]];outlineConnect=0;gradientColor=none;html=1;whiteSpace=wrap;fontSize=12;fontStyle=0;container=1;pointerEvents=0;collapsible=0;recursiveResize=0;shape=mxgraph.aws4.group;grIcon=mxgraph.aws4.group_vpc2;strokeColor=#8C4FFF;fillColor=none;verticalAlign=top;align=left;spacingLeft=30;fontColor=#AAB7B8;dashed=0;&quot; value=&quot;AWS VPC&quot; vertex=&quot;1&quot;&gt;&#10;          &lt;mxGeometry height=&quot;460&quot; width=&quot;560&quot; x=&quot;350&quot; y=&quot;330&quot; as=&quot;geometry&quot; /&gt;&#10;        &lt;/mxCell&gt;&#10;        &lt;mxCell id=&quot;u2GQE63Iu9Ab5R0BHB04-6&quot; parent=&quot;u2GQE63Iu9Ab5R0BHB04-4&quot; style=&quot;points=[[0,0],[0.25,0],[0.5,0],[0.75,0],[1,0],[1,0.25],[1,0.5],[1,0.75],[1,1],[0.75,1],[0.5,1],[0.25,1],[0,1],[0,0.75],[0,0.5],[0,0.25]];outlineConnect=0;gradientColor=none;html=1;whiteSpace=wrap;fontSize=12;fontStyle=0;container=1;pointerEvents=0;collapsible=0;recursiveResize=0;shape=mxgraph.aws4.group;grIcon=mxgraph.aws4.group_security_group;grStroke=0;strokeColor=#00A4A6;fillColor=#E6F6F7;verticalAlign=top;align=left;spacingLeft=30;fontColor=#147EBA;dashed=0;&quot; value=&quot;Private subnet&quot; vertex=&quot;1&quot;&gt;&#10;          &lt;mxGeometry height=&quot;380&quot; width=&quot;220&quot; x=&quot;320&quot; y=&quot;50&quot; as=&quot;geometry&quot; /&gt;&#10;        &lt;/mxCell&gt;&#10;        &lt;mxCell id=&quot;u2GQE63Iu9Ab5R0BHB04-9&quot; parent=&quot;u2GQE63Iu9Ab5R0BHB04-6&quot; style=&quot;fillColor=none;strokeColor=#DD3522;verticalAlign=top;fontStyle=0;fontColor=#DD3522;whiteSpace=wrap;html=1;&quot; value=&quot;Linux Instances Security Group&quot; vertex=&quot;1&quot;&gt;&#10;          &lt;mxGeometry height=&quot;320&quot; width=&quot;168.5&quot; x=&quot;31.5&quot; y=&quot;30&quot; as=&quot;geometry&quot; /&gt;&#10;        &lt;/mxCell&gt;&#10;        &lt;mxCell id=&quot;u2GQE63Iu9Ab5R0BHB04-10&quot; parent=&quot;u2GQE63Iu9Ab5R0BHB04-6&quot; style=&quot;sketch=0;outlineConnect=0;fontColor=#232F3E;gradientColor=none;fillColor=#ED7100;strokeColor=none;dashed=0;verticalLabelPosition=bottom;verticalAlign=top;align=center;html=1;fontSize=12;fontStyle=0;aspect=fixed;pointerEvents=1;shape=mxgraph.aws4.instances;&quot; value=&quot;&quot; vertex=&quot;1&quot;&gt;&#10;          &lt;mxGeometry height=&quot;130&quot; width=&quot;130&quot; x=&quot;50&quot; y=&quot;110&quot; as=&quot;geometry&quot; /&gt;&#10;        &lt;/mxCell&gt;&#10;        &lt;mxCell id=&quot;u2GQE63Iu9Ab5R0BHB04-11&quot; parent=&quot;u2GQE63Iu9Ab5R0BHB04-6&quot; style=&quot;text;html=1;whiteSpace=wrap;strokeColor=none;fillColor=none;align=center;verticalAlign=middle;rounded=0;fontSize=16;&quot; value=&quot;Linux Instances&amp;lt;div&amp;gt;&amp;lt;br&amp;gt;&amp;lt;/div&amp;gt;&quot; vertex=&quot;1&quot;&gt;&#10;          &lt;mxGeometry height=&quot;20&quot; width=&quot;120&quot; x=&quot;55&quot; y=&quot;290&quot; as=&quot;geometry&quot; /&gt;&#10;        &lt;/mxCell&gt;&#10;        &lt;mxCell id=&quot;u2GQE63Iu9Ab5R0BHB04-7&quot; parent=&quot;u2GQE63Iu9Ab5R0BHB04-4&quot; style=&quot;points=[[0,0],[0.25,0],[0.5,0],[0.75,0],[1,0],[1,0.25],[1,0.5],[1,0.75],[1,1],[0.75,1],[0.5,1],[0.25,1],[0,1],[0,0.75],[0,0.5],[0,0.25]];outlineConnect=0;gradientColor=none;html=1;whiteSpace=wrap;fontSize=12;fontStyle=0;container=1;pointerEvents=0;collapsible=0;recursiveResize=0;shape=mxgraph.aws4.group;grIcon=mxgraph.aws4.group_security_group;grStroke=0;strokeColor=#7AA116;fillColor=#F2F6E8;verticalAlign=top;align=left;spacingLeft=30;fontColor=#248814;dashed=0;&quot; value=&quot;Public subnet&quot; vertex=&quot;1&quot;&gt;&#10;          &lt;mxGeometry height=&quot;380&quot; width=&quot;250&quot; x=&quot;30&quot; y=&quot;50&quot; as=&quot;geometry&quot; /&gt;&#10;        &lt;/mxCell&gt;&#10;        &lt;mxCell id=&quot;u2GQE63Iu9Ab5R0BHB04-8&quot; parent=&quot;u2GQE63Iu9Ab5R0BHB04-7&quot; style=&quot;fillColor=none;strokeColor=#DD3522;verticalAlign=top;fontStyle=0;fontColor=#DD3522;whiteSpace=wrap;html=1;&quot; value=&quot;Bastion Host Security Group&quot; vertex=&quot;1&quot;&gt;&#10;          &lt;mxGeometry height=&quot;310&quot; width=&quot;200&quot; x=&quot;20&quot; y=&quot;40&quot; as=&quot;geometry&quot; /&gt;&#10;        &lt;/mxCell&gt;&#10;        &lt;mxCell id=&quot;u2GQE63Iu9Ab5R0BHB04-12&quot; parent=&quot;u2GQE63Iu9Ab5R0BHB04-7&quot; style=&quot;sketch=0;outlineConnect=0;fontColor=#232F3E;gradientColor=none;fillColor=#ED7100;strokeColor=none;dashed=0;verticalLabelPosition=bottom;verticalAlign=top;align=center;html=1;fontSize=12;fontStyle=0;aspect=fixed;pointerEvents=1;shape=mxgraph.aws4.instance2;&quot; value=&quot;&quot; vertex=&quot;1&quot;&gt;&#10;          &lt;mxGeometry height=&quot;154.5&quot; width=&quot;154.5&quot; x=&quot;35.5&quot; y=&quot;110&quot; as=&quot;geometry&quot; /&gt;&#10;        &lt;/mxCell&gt;&#10;        &lt;mxCell id=&quot;u2GQE63Iu9Ab5R0BHB04-13&quot; parent=&quot;u2GQE63Iu9Ab5R0BHB04-7&quot; style=&quot;text;html=1;whiteSpace=wrap;strokeColor=none;fillColor=none;align=center;verticalAlign=middle;rounded=0;fontSize=16;&quot; value=&quot;Bastion Host&amp;lt;div&amp;gt;&amp;lt;br&amp;gt;&amp;lt;/div&amp;gt;&quot; vertex=&quot;1&quot;&gt;&#10;          &lt;mxGeometry height=&quot;30&quot; width=&quot;120&quot; x=&quot;52.75&quot; y=&quot;290&quot; as=&quot;geometry&quot; /&gt;&#10;        &lt;/mxCell&gt;&#10;        &lt;mxCell id=&quot;u2GQE63Iu9Ab5R0BHB04-17&quot; edge=&quot;1&quot; parent=&quot;u2GQE63Iu9Ab5R0BHB04-7&quot; style=&quot;edgeStyle=orthogonalEdgeStyle;html=1;endArrow=block;elbow=vertical;startArrow=none;endFill=1;strokeColor=#545B64;rounded=0;fontSize=12;startSize=8;endSize=8;curved=1;entryX=0.008;entryY=0.546;entryDx=0;entryDy=0;entryPerimeter=0;dashed=1;dashPattern=1 1;&quot; target=&quot;u2GQE63Iu9Ab5R0BHB04-10&quot; value=&quot;&quot;&gt;&#10;          &lt;mxGeometry relative=&quot;1&quot; width=&quot;100&quot; as=&quot;geometry&quot;&gt;&#10;            &lt;mxPoint x=&quot;200&quot; y=&quot;180&quot; as=&quot;sourcePoint&quot; /&gt;&#10;            &lt;mxPoint x=&quot;300&quot; y=&quot;180&quot; as=&quot;targetPoint&quot; /&gt;&#10;          &lt;/mxGeometry&gt;&#10;        &lt;/mxCell&gt;&#10;        &lt;mxCell id=&quot;u2GQE63Iu9Ab5R0BHB04-15&quot; edge=&quot;1&quot; parent=&quot;u2GQE63Iu9Ab5R0BHB04-4&quot; style=&quot;edgeStyle=orthogonalEdgeStyle;html=1;endArrow=block;elbow=vertical;startArrow=none;endFill=1;strokeColor=#545B64;rounded=0;fontSize=12;startSize=8;endSize=8;curved=1;dashed=1;dashPattern=1 1;&quot; value=&quot;&quot;&gt;&#10;          &lt;mxGeometry relative=&quot;1&quot; width=&quot;100&quot; as=&quot;geometry&quot;&gt;&#10;            &lt;mxPoint x=&quot;-90&quot; y=&quot;230&quot; as=&quot;sourcePoint&quot; /&gt;&#10;            &lt;mxPoint x=&quot;64&quot; y=&quot;229.5&quot; as=&quot;targetPoint&quot; /&gt;&#10;          &lt;/mxGeometry&gt;&#10;        &lt;/mxCell&gt;&#10;      &lt;/root&gt;&#10;    &lt;/mxGraphModel&gt;&#10;  &lt;/diagram&gt;&#10;&lt;/mxfile&gt;&#10;"><defs/><g><g data-cell-id="0"><g data-cell-id="1"><g data-cell-id="u2GQE63Iu9Ab5R0BHB04-1"><g transform="translate(0.5,0.5)"><rect x="16" y="210" width="78" height="78" fill="none" stroke="none" pointer-events="all"/><path d="M 63.22 222.92 C 63.22 217.75 67.5 213.55 72.76 213.55 C 78.02 213.55 82.29 217.75 82.29 222.92 C 82.29 228.08 78.02 232.29 72.76 232.29 C 67.5 232.29 63.22 228.08 63.22 222.92 Z M 83.65 235.41 C 82.51 234.7 81.29 234.11 80.05 233.64 C 83.54 231.31 85.84 227.38 85.84 222.92 C 85.84 215.8 79.97 210 72.76 210 C 65.55 210 59.68 215.8 59.68 222.92 C 59.68 227.37 61.97 231.3 65.45 233.62 C 63.18 234.48 61.05 235.73 59.16 237.34 L 61.47 240.04 C 64.63 237.32 68.63 235.83 72.73 235.83 C 75.92 235.83 79.05 236.73 81.78 238.42 C 86.64 241.44 89.83 246.74 90.37 252.55 L 72.73 252.55 L 72.73 256.09 L 92.23 256.09 C 93.21 256.09 94 255.3 94 254.32 C 94 246.62 90.04 239.37 83.65 235.41 Z M 27.77 222.92 C 27.77 217.75 32.05 213.55 37.31 213.55 C 42.56 213.55 46.84 217.75 46.84 222.92 C 46.84 228.08 42.56 232.29 37.31 232.29 C 32.05 232.29 27.77 228.08 27.77 222.92 Z M 37.27 252.55 L 19.63 252.55 C 20.48 243.18 28.07 235.83 37.27 235.83 C 40.47 235.83 43.6 236.73 46.33 238.42 C 47.1 238.9 47.83 239.44 48.53 240.04 L 50.84 237.35 C 50.01 236.63 49.12 235.98 48.2 235.41 C 47.05 234.7 45.84 234.11 44.59 233.64 C 48.08 231.31 50.39 227.38 50.39 222.92 C 50.39 215.8 44.52 210 37.31 210 C 30.09 210 24.22 215.8 24.22 222.92 C 24.22 227.37 26.52 231.31 30.02 233.63 C 21.85 236.72 16 244.81 16 254.32 C 16 255.3 16.79 256.09 17.77 256.09 L 37.27 256.09 Z M 37.35 284.45 C 38.21 275.09 45.8 267.74 55 267.74 C 58.19 267.74 61.33 268.64 64.06 270.33 C 68.91 273.35 72.1 278.65 72.64 284.45 Z M 45.5 254.83 C 45.5 249.66 49.77 245.45 55.03 245.45 C 60.29 245.45 64.57 249.66 64.57 254.83 C 64.57 259.99 60.29 264.2 55.03 264.2 C 49.77 264.2 45.5 259.99 45.5 254.83 Z M 65.93 267.32 C 64.78 266.61 63.57 266.02 62.32 265.54 C 65.81 263.22 68.11 259.29 68.11 254.83 C 68.11 247.7 62.25 241.91 55.03 241.91 C 47.82 241.91 41.95 247.7 41.95 254.83 C 41.95 259.28 44.25 263.22 47.74 265.54 C 39.58 268.63 33.73 276.72 33.73 286.23 C 33.73 287.21 34.52 288 35.5 288 L 74.5 288 C 75.48 288 76.27 287.21 76.27 286.23 C 76.27 278.53 72.31 271.28 65.93 267.32 Z" fill="#232f3d" stroke="none" pointer-events="all" style="fill: light-dark(rgb(35, 47, 61), rgb(190, 200, 212));"/></g></g><g data-cell-id="u2GQE63Iu9Ab5R0BHB04-2"><g transform="translate(0.5,0.5)"><rect x="0" y="310" width="110" height="30" fill="none" stroke="none" pointer-events="all"/></g><g><g><switch><foreignObject style="overflow: visible; text-align: left;" pointer-events="none" width="100%" height="100%" requiredFeatures="http://www.w3.org/TR/SVG11/feature#Extensibility"><div xmlns="http://www.w3.org/1999/xhtml" style="display: flex; align-items: unsafe center; justify-content: unsafe center; width: 108px; height: 1px; padding-top: 325px; margin-left: 1px;"><div style="box-sizing: border-box; font-size: 0; text-align: center; color: #000000; "><div style="display: inline-block; font-size: 16px; font-family: Helvetica; color: light-dark(#000000, #ffffff); line-height: 1.2; pointer-events: all; white-space: normal; word-wrap: normal; ">Bastion Users<div><br /></div></div></div></div></foreignObject><text x="55" y="330" fill="light-dark(#000000, #ffffff)" font-family="Helvetica" font-size="16px" text-anchor="middle">Bastion Users&#xa;</text></switch></g></g></g><g data-cell-id="u2GQE63Iu9Ab5R0BHB04-4"><g transform="translate(0.5,0.5)"><path d="M 196 0 L 756 0 L 756 460 L 196 460 Z" fill="none" stroke="#8c4fff" stroke-miterlimit="10" pointer-events="none" style="stroke: light-dark(rgb(140, 79, 255), rgb(177, 125, 255));"/><path d="M 196 0 L 196 25 L 221 25 L 221 0 Z M 206.99 4.38 C 208.29 4.36 209.51 4.77 210.32 5.55 C 210.78 6 211.14 6.51 211.42 7.1 C 211.8 6.82 212.29 6.69 212.89 6.72 C 214 6.77 214.85 7.79 215.03 9.22 C 215.97 9.3 216.58 9.77 216.91 10.66 L 216.33 10.88 C 216.06 10.16 215.57 9.83 214.74 9.83 C 214.58 9.83 214.44 9.7 214.43 9.54 C 214.35 8.08 213.55 7.38 212.85 7.34 C 212.26 7.31 211.83 7.48 211.55 7.83 C 211.48 7.93 211.38 7.97 211.26 7.96 C 211.15 7.94 211.05 7.86 211.01 7.75 C 210.76 7.06 210.39 6.49 209.88 5.99 C 208.76 4.91 206.7 4.68 204.86 5.44 C 203.57 5.96 202.74 7.32 202.74 8.88 C 202.74 9.06 202.76 9.32 202.78 9.48 C 202.8 9.64 202.7 9.79 202.55 9.82 C 201.11 10.18 200.37 11.05 200.37 12.4 C 200.37 12.46 200.37 12.53 200.38 12.59 C 200.47 14.15 201.44 15.15 202.87 15.15 L 207.87 15.15 L 207.87 15.77 L 202.87 15.77 C 201.11 15.77 199.86 14.51 199.76 12.64 C 199.75 12.57 199.75 12.48 199.75 12.4 C 199.75 10.83 200.57 9.76 202.14 9.29 C 202.12 9.15 202.12 9 202.12 8.88 C 202.12 7.06 203.1 5.48 204.63 4.86 C 205.4 4.54 206.21 4.38 206.99 4.38 Z M 213.21 9.83 C 213.25 9.83 213.29 9.84 213.33 9.86 L 217.05 11.5 C 217.17 11.55 217.24 11.66 217.24 11.79 L 217.24 16.4 C 217.24 16.47 217.26 18.43 215.99 19.72 C 215.28 20.43 214.33 20.8 213.15 20.8 C 211.97 20.8 211.02 20.43 210.33 19.72 C 209.08 18.43 209.12 16.47 209.12 16.39 L 209.12 11.73 C 209.12 11.61 209.19 11.49 209.31 11.45 L 213.08 9.86 C 213.12 9.84 213.16 9.83 213.21 9.83 Z M 213.2 10.49 L 209.74 11.94 L 209.74 16.4 C 209.74 16.42 209.71 18.19 210.78 19.29 C 211.35 19.87 212.15 20.17 213.15 20.17 C 214.15 20.17 214.96 19.87 215.54 19.28 C 216.62 18.18 216.61 16.42 216.61 16.4 L 216.61 11.99 Z M 213.2 11.57 C 213.25 11.57 213.29 11.58 213.33 11.59 L 215.79 12.65 C 215.91 12.7 215.98 12.81 215.98 12.94 L 215.98 17.02 C 215.87 17.93 215.13 19.56 213.15 19.56 C 211.23 19.56 210.49 17.93 210.37 17.06 L 210.37 12.94 C 210.37 12.81 210.45 12.7 210.56 12.65 L 213.08 11.59 C 213.12 11.58 213.16 11.57 213.2 11.57 Z M 212.89 12.35 L 210.99 13.15 L 210.99 17.02 C 211 17.05 211.27 18.75 212.89 18.92 Z M 213.52 12.35 L 213.52 18.91 C 215.11 18.69 215.35 17.05 215.36 16.98 L 215.36 13.14 Z" fill="#8c4fff" stroke="none" pointer-events="all" style="fill: light-dark(rgb(140, 79, 255), rgb(177, 125, 255));"/></g><g><g><switch><foreignObject style="overflow: visible; text-align: left;" pointer-events="none" width="100%" height="100%" requiredFeatures="http://www.w3.org/TR/SVG11/feature#Extensibility"><div xmlns="http://www.w3.org/1999/xhtml" style="display: flex; align-items: unsafe flex-start; justify-content: unsafe flex-start; width: 528px; height: 1px; padding-top: 7px; margin-left: 228px;"><div style="box-sizing: border-box; font-size: 0; text-align: left; color: #AAB7B8; "><div style="display: inline-block; font-size: 12px; font-family: Helvetica; color: light-dark(#AAB7B8, #4a5556); line-height: 1.2; pointer-events: all; white-space: normal; word-wrap: normal; ">AWS VPC</div></div></div></foreignObject><text x="228" y="19" fill="#AAB7B8" font-family="Helvetica" font-size="12px">AWS VPC</text></switch></g></g><g data-cell-id="u2GQE63Iu9Ab5R0BHB04-6"><g transform="translate(0.5,0.5)"><path d="M 516 50 L 736 50 L 736 430 L 516 430 Z" fill="#e6f6f7" stroke="none" pointer-events="none" style="fill: light-dark(rgb(230, 246, 247), rgb(18, 31, 32));"/><path d="M 516 50 L 541 50 L 541 75 L 516 75 Z M 528.52 53.21 C 527.4 53.21 526.31 53.63 525.49 54.39 C 524.67 55.11 524.2 56.15 524.2 57.24 L 524.2 59.78 L 521.89 59.78 C 521.8 59.78 521.7 59.82 521.64 59.89 C 521.57 59.95 521.54 60.04 521.54 60.13 L 521.54 71.43 C 521.54 71.63 521.7 71.79 521.89 71.79 L 535.11 71.79 C 535.3 71.79 535.46 71.63 535.46 71.43 L 535.46 60.15 C 535.47 60.06 535.43 59.97 535.36 59.9 C 535.3 59.83 535.21 59.79 535.11 59.79 L 532.81 59.79 L 532.81 57.29 C 532.8 56.21 532.35 55.18 531.56 54.44 C 530.74 53.65 529.65 53.22 528.52 53.21 Z M 528.51 53.93 C 529.46 53.92 530.37 54.28 531.06 54.93 C 531.72 55.54 532.1 56.4 532.1 57.29 L 532.1 59.79 L 524.88 59.79 L 524.89 57.26 C 524.9 56.36 525.28 55.51 525.95 54.91 C 526.65 54.27 527.57 53.92 528.51 53.93 Z M 522.24 60.5 L 534.76 60.5 L 534.75 71.07 L 522.24 71.07 Z M 528.51 62.74 C 527.48 62.73 526.61 63.51 526.51 64.53 C 526.42 65.56 527.13 66.48 528.14 66.66 L 528.14 69.44 L 528.86 69.44 L 528.86 66.66 C 529.79 66.49 530.47 65.67 530.48 64.72 C 530.48 63.63 529.6 62.75 528.51 62.74 Z M 528.39 63.45 C 528.43 63.45 528.47 63.45 528.51 63.46 C 528.84 63.46 529.16 63.59 529.4 63.83 C 529.64 64.07 529.77 64.39 529.76 64.72 C 529.77 65.06 529.64 65.38 529.4 65.61 C 529.16 65.85 528.84 65.98 528.51 65.98 C 528.04 66.02 527.6 65.8 527.34 65.42 C 527.08 65.03 527.06 64.53 527.28 64.12 C 527.5 63.71 527.93 63.46 528.39 63.45 Z" fill="#00a4a6" stroke="none" pointer-events="all" style="fill: light-dark(rgb(0, 164, 166), rgb(15, 156, 158));"/></g><g><g><switch><foreignObject style="overflow: visible; text-align: left;" pointer-events="none" width="100%" height="100%" requiredFeatures="http://www.w3.org/TR/SVG11/feature#Extensibility"><div xmlns="http://www.w3.org/1999/xhtml" style="display: flex; align-items: unsafe flex-start; justify-content: unsafe flex-start; width: 188px; height: 1px; padding-top: 57px; margin-left: 548px;"><div style="box-sizing: border-box; font-size: 0; text-align: left; color: #147EBA; "><div style="display: inline-block; font-size: 12px; font-family: Helvetica; color: light-dark(#147EBA, #45a0d4); line-height: 1.2; pointer-events: all; white-space: normal; word-wrap: normal; ">Private subnet</div></div></div></foreignObject><text x="548" y="69" fill="#147EBA" font-family="Helvetica" font-size="12px">Private subnet</text></switch></g></g><g data-cell-id="u2GQE63Iu9Ab5R0BHB04-9"><g transform="translate(0.5,0.5)"><rect x="547.5" y="80" width="168.5" height="320" fill="none" stroke="#dd3522" pointer-events="all" style="stroke: light-dark(rgb(221, 53, 34), rgb(255, 133, 117));"/></g><g><g><switch><foreignObject style="overflow: visible; text-align: left;" pointer-events="none" width="100%" height="100%" requiredFeatures="http://www.w3.org/TR/SVG11/feature#Extensibility"><div xmlns="http://www.w3.org/1999/xhtml" style="display: flex; align-items: unsafe flex-start; justify-content: unsafe center; width: 167px; height: 1px; padding-top: 87px; margin-left: 548px;"><div style="box-sizing: border-box; font-size: 0; text-align: center; color: #DD3522; "><div style="display: inline-block; font-size: 12px; font-family: Helvetica; color: light-dark(#DD3522, #ff8575); line-height: 1.2; pointer-events: all; white-space: normal; word-wrap: normal; ">Linux Instances Security Group</div></div></div></foreignObject><text x="632" y="99" fill="#DD3522" font-family="Helvetica" font-size="12px" text-anchor="middle">Linux Instances Security Gro...</text></switch></g></g></g><g data-cell-id="u2GQE63Iu9Ab5R0BHB04-10"><g transform="translate(0.5,0.5)"><rect x="566" y="160" width="130" height="130" fill="none" stroke="none" pointer-events="all"/><path d="M 572.31 222.04 L 589.64 222.04 L 589.64 227.96 L 572.31 227.96 C 568.83 227.96 566 225.13 566 221.65 L 566 166.31 C 566 162.83 568.83 160 572.31 160 L 627.65 160 C 631.13 160 633.96 162.83 633.96 166.31 L 633.96 186.22 L 628.04 186.22 L 628.04 166.31 C 628.04 166.09 627.87 165.92 627.65 165.92 L 572.31 165.92 C 572.09 165.92 571.92 166.09 571.92 166.31 L 571.92 221.65 C 571.92 221.87 572.09 222.04 572.31 222.04 Z M 600.74 253.06 L 623.06 253.06 L 623.06 258.98 L 600.74 258.98 C 597.27 258.98 594.44 256.15 594.44 252.68 L 594.44 197.32 C 594.44 193.85 597.27 191.02 600.74 191.02 L 656.09 191.02 C 659.56 191.02 662.4 193.85 662.4 197.32 L 662.4 217.24 L 656.48 217.24 L 656.48 197.32 C 656.48 197.11 656.3 196.94 656.09 196.94 L 600.74 196.94 C 600.53 196.94 600.36 197.11 600.36 197.32 L 600.36 252.68 C 600.36 252.89 600.53 253.06 600.74 253.06 Z M 689.87 284.08 L 633.96 283.87 L 633.96 228.35 C 633.96 228.13 634.13 227.96 634.35 227.96 L 689.69 227.96 C 689.91 227.96 690.08 228.13 690.08 228.35 Z M 689.69 222.04 L 634.35 222.04 C 630.87 222.04 628.04 224.87 628.04 228.35 L 628.04 283.87 C 628.04 287.25 630.79 290 634.17 290 L 689.87 290 C 693.25 290 696 287.25 696 283.87 L 696 228.35 C 696 224.87 693.17 222.04 689.69 222.04 Z" fill="#ed7100" stroke="none" pointer-events="all" style="fill: light-dark(rgb(237, 113, 0), rgb(216, 109, 12));"/></g></g><g data-cell-id="u2GQE63Iu9Ab5R0BHB04-11"><g transform="translate(0.5,0.5)"><rect x="571" y="340" width="120" height="20" fill="none" stroke="none" pointer-events="all"/></g><g><g><switch><foreignObject style="overflow: visible; text-align: left;" pointer-events="none" width="100%" height="100%" requiredFeatures="http://www.w3.org/TR/SVG11/feature#Extensibility"><div xmlns="http://www.w3.org/1999/xhtml" style="display: flex; align-items: unsafe center; justify-content: unsafe center; width: 118px; height: 1px; padding-top: 350px; margin-left: 572px;"><div style="box-sizing: border-box; font-size: 0; text-align: center; color: #000000; "><div style="display: inline-block; font-size: 16px; font-family: Helvetica; color: light-dark(#000000, #ffffff); line-height: 1.2; pointer-events: all; white-space: normal; word-wrap: normal; ">Linux Instances<div><br /></div></div></div></div></foreignObject><text x="631" y="355" fill="light-dark(#000000, #ffffff)" font-family="Helvetica" font-size="16px" text-anchor="middle">Linux Instances&#xa;</text></switch></g></g></g></g><g data-cell-id="u2GQE63Iu9Ab5R0BHB04-7"><g transform="translate(0.5,0.5)"><path d="M 226 50 L 476 50 L 476 430 L 226 430 Z" fill="#f2f6e8" stroke="none" pointer-events="none" style="fill: light-dark(rgb(242, 246, 232), rgb(26, 29, 17));"/><path d="M 226 50 L 251 50 L 251 75 L 226 75 Z M 238.52 53.21 C 237.4 53.21 236.31 53.63 235.49 54.39 C 234.67 55.11 234.2 56.15 234.2 57.24 L 234.2 59.78 L 231.89 59.78 C 231.8 59.78 231.7 59.82 231.64 59.89 C 231.57 59.95 231.54 60.04 231.54 60.13 L 231.54 71.43 C 231.54 71.63 231.7 71.79 231.89 71.79 L 245.11 71.79 C 245.3 71.79 245.46 71.63 245.46 71.43 L 245.46 60.15 C 245.47 60.06 245.43 59.97 245.36 59.9 C 245.3 59.83 245.21 59.79 245.11 59.79 L 242.81 59.79 L 242.81 57.29 C 242.8 56.21 242.35 55.18 241.56 54.44 C 240.74 53.65 239.65 53.22 238.52 53.21 Z M 238.51 53.93 C 239.46 53.92 240.37 54.28 241.06 54.93 C 241.72 55.54 242.1 56.4 242.1 57.29 L 242.1 59.79 L 234.88 59.79 L 234.89 57.26 C 234.9 56.36 235.28 55.51 235.95 54.91 C 236.65 54.27 237.57 53.92 238.51 53.93 Z M 232.24 60.5 L 244.76 60.5 L 244.75 71.07 L 232.24 71.07 Z M 238.51 62.74 C 237.48 62.73 236.61 63.51 236.51 64.53 C 236.42 65.56 237.13 66.48 238.14 66.66 L 238.14 69.44 L 238.86 69.44 L 238.86 66.66 C 239.79 66.49 240.47 65.67 240.48 64.72 C 240.48 63.63 239.6 62.75 238.51 62.74 Z M 238.39 63.45 C 238.43 63.45 238.47 63.45 238.51 63.46 C 238.84 63.46 239.16 63.59 239.4 63.83 C 239.64 64.07 239.77 64.39 239.76 64.72 C 239.77 65.06 239.64 65.38 239.4 65.61 C 239.16 65.85 238.84 65.98 238.51 65.98 C 238.04 66.02 237.6 65.8 237.34 65.42 C 237.08 65.03 237.06 64.53 237.28 64.12 C 237.5 63.71 237.93 63.46 238.39 63.45 Z" fill="#7aa116" stroke="none" pointer-events="all" style="fill: light-dark(rgb(122, 161, 22), rgb(97, 130, 11));"/></g><g><g><switch><foreignObject style="overflow: visible; text-align: left;" pointer-events="none" width="100%" height="100%" requiredFeatures="http://www.w3.org/TR/SVG11/feature#Extensibility"><div xmlns="http://www.w3.org/1999/xhtml" style="display: flex; align-items: unsafe flex-start; justify-content: unsafe flex-start; width: 218px; height: 1px; padding-top: 57px; margin-left: 258px;"><div style="box-sizing: border-box; font-size: 0; text-align: left; color: #248814; "><div style="display: inline-block; font-size: 12px; font-family: Helvetica; color: light-dark(#248814, #55ab47); line-height: 1.2; pointer-events: all; white-space: normal; word-wrap: normal; ">Public subnet</div></div></div></foreignObject><text x="258" y="69" fill="#248814" font-family="Helvetica" font-size="12px">Public subnet</text></switch></g></g><g data-cell-id="u2GQE63Iu9Ab5R0BHB04-8"><g transform="translate(0.5,0.5)"><rect x="246" y="90" width="200" height="310" fill="none" stroke="#dd3522" pointer-events="all" style="stroke: light-dark(rgb(221, 53, 34), rgb(255, 133, 117));"/></g><g><g><switch><foreignObject style="overflow: visible; text-align: left;" pointer-events="none" width="100%" height="100%" requiredFeatures="http://www.w3.org/TR/SVG11/feature#Extensibility"><div xmlns="http://www.w3.org/1999/xhtml" style="display: flex; align-items: unsafe flex-start; justify-content: unsafe center; width: 198px; height: 1px; padding-top: 97px; margin-left: 247px;"><div style="box-sizing: border-box; font-size: 0; text-align: center; color: #DD3522; "><div style="display: inline-block; font-size: 12px; font-family: Helvetica; color: light-dark(#DD3522, #ff8575); line-height: 1.2; pointer-events: all; white-space: normal; word-wrap: normal; ">Bastion Host Security Group</div></div></div></foreignObject><text x="346" y="109" fill="#DD3522" font-family="Helvetica" font-size="12px" text-anchor="middle">Bastion Host Security Group</text></switch></g></g></g><g data-cell-id="u2GQE63Iu9Ab5R0BHB04-12"><g transform="translate(0.5,0.5)"><rect x="261.5" y="160" width="154.5" height="154.5" fill="none" stroke="none" pointer-events="all"/><path d="M 416 198.63 L 416 191.6 L 398.44 191.6 L 398.44 181.07 C 398.44 179.13 396.87 177.56 394.93 177.56 L 384.4 177.56 L 384.4 160 L 377.38 160 L 377.38 177.56 L 363.33 177.56 L 363.33 160 L 356.31 160 L 356.31 177.56 L 342.26 177.56 L 342.26 160 L 335.24 160 L 335.24 177.56 L 321.19 177.56 L 321.19 160 L 314.17 160 L 314.17 177.56 L 300.13 177.56 L 300.13 160 L 293.1 160 L 293.1 177.56 L 282.57 177.56 C 280.63 177.56 279.06 179.13 279.06 181.07 L 279.06 191.6 L 261.5 191.6 L 261.5 198.63 L 279.06 198.63 L 279.06 212.67 L 261.5 212.67 L 261.5 219.69 L 279.06 219.69 L 279.06 233.74 L 261.5 233.74 L 261.5 240.76 L 279.06 240.76 L 279.06 254.81 L 261.5 254.81 L 261.5 261.83 L 279.06 261.83 L 279.06 275.88 L 261.5 275.88 L 261.5 282.9 L 279.06 282.9 L 279.06 293.43 C 279.06 295.37 280.63 296.94 282.57 296.94 L 293.1 296.94 L 293.1 314.5 L 300.13 314.5 L 300.13 296.94 L 314.17 296.94 L 314.17 314.5 L 321.19 314.5 L 321.19 296.94 L 335.24 296.94 L 335.24 314.5 L 342.26 314.5 L 342.26 296.94 L 356.31 296.94 L 356.31 314.5 L 363.33 314.5 L 363.33 296.94 L 377.38 296.94 L 377.38 314.5 L 384.4 314.5 L 384.4 296.94 L 394.93 296.94 C 396.87 296.94 398.44 295.37 398.44 293.43 L 398.44 282.9 L 416 282.9 L 416 275.88 L 398.44 275.88 L 398.44 261.83 L 416 261.83 L 416 254.81 L 398.44 254.81 L 398.44 240.76 L 416 240.76 L 416 233.74 L 398.44 233.74 L 398.44 219.69 L 416 219.69 L 416 212.67 L 398.44 212.67 L 398.44 198.63 Z M 286.08 289.92 L 286.08 184.58 L 391.42 184.58 L 391.42 289.92 Z" fill="#ed7100" stroke="none" pointer-events="all" style="fill: light-dark(rgb(237, 113, 0), rgb(216, 109, 12));"/></g></g><g data-cell-id="u2GQE63Iu9Ab5R0BHB04-13"><g transform="translate(0.5,0.5)"><rect x="278.75" y="340" width="120" height="30" fill="none" stroke="none" pointer-events="all"/></g><g><g><switch><foreignObject style="overflow: visible; text-align: left;" pointer-events="none" width="100%" height="100%" requiredFeatures="http://www.w3.org/TR/SVG11/feature#Extensibility"><div xmlns="http://www.w3.org/1999/xhtml" style="display: flex; align-items: unsafe center; justify-content: unsafe center; width: 118px; height: 1px; padding-top: 355px; margin-left: 280px;"><div style="box-sizing: border-box; font-size: 0; text-align: center; color: #000000; "><div style="display: inline-block; font-size: 16px; font-family: Helvetica; color: light-dark(#000000, #ffffff); line-height: 1.2; pointer-events: all; white-space: normal; word-wrap: normal; ">Bastion Host<div><br /></div></div></div></div></foreignObject><text x="339" y="360" fill="light-dark(#000000, #ffffff)" font-family="Helvetica" font-size="16px" text-anchor="middle">Bastion Host&#xa;</text></switch></g></g></g><g data-cell-id="u2GQE63Iu9Ab5R0BHB04-17"><g transform="translate(0.5,0.5)"><path d="M 426 230 Q 496.5 230 556.92 230.84" fill="none" stroke="#545b64" stroke-miterlimit="10" stroke-dasharray="1 1" pointer-events="stroke" style="stroke: light-dark(rgb(84, 91, 100), rgb(154, 160, 168));"/><path d="M 565.92 230.96 L 556.86 235.34 L 556.99 226.34 Z" fill="#545b64" stroke="#545b64" stroke-miterlimit="10" pointer-events="all" style="fill: light-dark(rgb(84, 91, 100), rgb(154, 160, 168)); stroke: light-dark(rgb(84, 91, 100), rgb(154, 160, 168));"/></g></g></g><g data-cell-id="u2GQE63Iu9Ab5R0BHB04-15"><g transform="translate(0.5,0.5)"><path d="M 106 230 Q 183.5 230 249.88 229.57" fill="none" stroke="#545b64" stroke-miterlimit="10" stroke-dasharray="1 1" pointer-events="stroke" style="stroke: light-dark(rgb(84, 91, 100), rgb(154, 160, 168));"/><path d="M 258.88 229.51 L 249.91 234.07 L 249.85 225.07 Z" fill="#545b64" stroke="#545b64" stroke-miterlimit="10" pointer-events="all" style="fill: light-dark(rgb(84, 91, 100), rgb(154, 160, 168)); stroke: light-dark(rgb(84, 91, 100), rgb(154, 160, 168));"/></g></g></g></g></g></g><switch><g requiredFeatures="http://www.w3.org/TR/SVG11/feature#Extensibility"/><a transform="translate(0,-5)" xlink:href="https://www.drawio.com/doc/faq/svg-export-text-problems" target="_blank"><text text-anchor="middle" font-size="10px" x="50%" y="100%">Text is not SVG - cannot display</text></a></switch></svg>